<?xml version="1.0" standalone="no"?>
<!DOCTYPE svg PUBLIC "-//W3C//DTD SVG 20010904//EN"
 "http://www.w3.org/TR/2001/REC-SVG-20010904/DTD/svg10.dtd">
<svg version="1.0" xmlns="http://www.w3.org/2000/svg"
 width="263.000000pt" height="263.000000pt" viewBox="0 0 263.000000 263.000000"
 preserveAspectRatio="xMidYMid meet">
<metadata>
Created by potrace 1.11, written by Peter Selinger 2001-2013
</metadata>
<g transform="translate(0.000000,263.000000) scale(0.100000,-0.100000)"
fill="#000000" stroke="none">
<path d="M1190 2610 c-6 -3 -31 -7 -57 -9 -26 -1 -50 -5 -53 -9 -3 -4 -16 -7
-30 -7 -14 0 -30 -3 -36 -8 -7 -4 -16 -7 -20 -6 -7 2 -41 -6 -104 -26 -21 -7
-49 -19 -71 -31 -14 -7 -29 -11 -33 -7 -3 3 -6 2 -6 -4 0 -10 -36 -26 -52 -24
-5 1 -8 -4 -8 -10 0 -6 -7 -9 -15 -5 -9 3 -15 0 -15 -10 0 -10 -6 -14 -15 -10
-8 3 -15 1 -15 -4 0 -6 -7 -10 -15 -10 -9 0 -18 -7 -21 -15 -4 -8 -12 -15 -19
-15 -8 0 -21 -7 -29 -16 -9 -8 -16 -13 -16 -9 0 8 -36 -24 -136 -121 -46 -44
-84 -79 -84 -76 0 2 -11 -10 -25 -26 -14 -17 -25 -35 -25 -41 0 -6 -9 -16 -20
-23 -11 -7 -20 -17 -20 -22 0 -5 -11 -23 -24 -41 -20 -26 -105 -180 -108 -195
-6 -29 -12 -39 -21 -33 -7 4 -8 0 -4 -11 4 -10 4 -23 0 -29 -4 -7 -8 -19 -10
-27 -1 -8 -6 -16 -12 -18 -5 -2 -7 -10 -4 -18 3 -8 0 -21 -7 -29 -7 -8 -9 -15
-5 -15 4 0 3 -6 -2 -12 -6 -7 -11 -28 -11 -47 0 -19 -5 -37 -10 -40 -5 -3 -8
-25 -6 -48 1 -24 -2 -43 -7 -43 -4 0 -8 -40 -7 -89 0 -49 -3 -94 -6 -99 -3 -6
0 -13 6 -16 10 -5 10 -7 1 -12 -8 -3 -9 -13 -4 -27 4 -12 6 -28 4 -34 -3 -7 0
-13 5 -13 6 0 9 -18 8 -40 -2 -23 1 -43 6 -46 4 -3 8 -18 8 -34 0 -16 4 -31 9
-34 5 -4 8 -14 6 -24 -1 -9 2 -23 8 -29 5 -7 6 -13 3 -13 -4 0 -1 -10 6 -22 7
-13 11 -29 10 -35 -2 -7 2 -13 8 -13 5 0 9 -3 9 -7 -3 -18 14 -73 23 -73 5 0
6 -5 3 -10 -3 -6 -1 -10 4 -10 6 0 11 -3 10 -7 -2 -15 13 -53 21 -53 5 0 11
-14 15 -30 4 -17 11 -30 16 -30 5 0 9 -7 9 -15 0 -7 7 -18 16 -23 9 -5 16 -13
16 -18 1 -14 31 -57 57 -81 13 -13 20 -23 15 -23 -4 0 11 -19 34 -43 23 -24
39 -47 35 -51 -4 -4 0 -4 10 0 12 4 17 1 17 -10 0 -9 4 -16 8 -16 4 0 26 -17
49 -37 50 -46 95 -79 106 -75 4 1 7 -4 7 -12 0 -13 11 -21 35 -25 6 -2 24 -12
40 -25 34 -25 175 -98 175 -91 0 3 18 -4 40 -15 22 -11 40 -18 40 -14 0 4 7 1
15 -6 9 -7 18 -10 22 -7 3 3 17 0 32 -7 14 -7 34 -12 44 -11 9 2 17 -1 17 -6
0 -6 6 -9 13 -8 6 1 28 -1 47 -5 93 -18 320 -28 320 -13 0 5 11 7 24 5 14 -3
30 -1 37 3 7 4 21 3 31 -2 11 -6 18 -6 18 0 0 5 15 11 33 14 17 3 46 8 62 12
17 4 37 8 45 9 9 1 22 6 30 11 8 5 20 10 25 10 14 1 45 14 78 31 15 8 33 12
40 8 6 -4 9 -4 5 1 -8 8 41 39 49 31 3 -2 13 4 24 15 11 11 24 17 29 14 6 -4
10 -1 10 5 0 6 4 9 9 5 6 -3 13 1 18 8 4 7 26 24 48 37 22 13 44 30 48 37 5 7
12 11 16 9 5 -3 18 6 31 19 13 13 27 22 32 19 5 -3 8 -2 7 3 -3 19 2 34 10 28
5 -3 27 13 48 36 21 23 48 52 60 65 12 13 19 24 15 24 -3 0 4 7 16 16 12 8 22
20 22 26 0 6 11 21 24 33 14 13 22 26 19 29 -3 3 2 8 11 12 9 3 16 14 16 25 0
10 6 22 13 26 15 8 72 123 69 136 -1 4 2 7 8 7 5 0 10 7 10 15 0 8 4 15 9 15
5 0 8 8 6 18 -1 9 5 25 14 36 9 10 15 20 14 22 -2 2 -2 6 -2 9 1 3 3 14 4 25
1 11 4 22 5 25 1 3 3 8 5 13 1 4 4 14 7 22 16 43 28 101 23 110 -3 5 -1 11 4
15 6 3 9 21 7 41 -1 19 1 37 6 40 5 3 4 12 -2 19 -8 9 -8 15 0 20 12 8 13 144
0 165 -5 9 -5 19 1 26 6 7 6 15 1 18 -5 3 -8 19 -6 36 2 16 0 30 -5 30 -4 0
-7 16 -5 35 1 19 -2 35 -7 35 -5 0 -9 13 -9 29 0 17 -5 33 -10 36 -6 4 -8 11
-4 16 3 5 1 16 -5 23 -7 8 -11 18 -10 22 4 16 -13 64 -22 64 -5 0 -9 11 -9 24
0 13 -9 35 -20 49 -11 14 -20 32 -20 40 0 9 -6 22 -13 29 -7 7 -15 18 -16 23
-10 33 -22 56 -40 77 -11 13 -20 27 -20 31 0 5 -9 17 -20 26 -11 10 -18 21
-15 24 3 3 -3 12 -15 19 -12 7 -21 17 -21 23 0 6 -9 17 -20 25 -11 8 -20 18
-20 21 0 7 -111 120 -120 123 -3 0 -4 5 -2 9 1 5 -2 6 -7 2 -6 -3 -18 3 -28
15 -10 11 -22 20 -28 20 -6 0 -17 9 -25 20 -8 11 -20 20 -26 20 -6 0 -17 7
-24 15 -7 8 -16 12 -21 9 -5 -3 -9 2 -9 11 0 9 -4 13 -10 10 -5 -3 -26 6 -45
21 -19 14 -35 23 -35 20 0 -4 -10 0 -22 8 -12 9 -30 16 -40 16 -10 0 -18 4
-18 9 0 5 -13 12 -30 16 -16 4 -30 10 -30 15 0 5 -9 7 -20 5 -11 -2 -22 0 -25
6 -4 5 -16 9 -29 9 -12 0 -26 3 -29 7 -7 6 -45 14 -84 17 -13 0 -23 4 -23 8 0
14 -328 31 -350 18z m-92 -550 c-7 -10 -14 -17 -17 -15 -4 4 18 35 25 35 2 0
-1 -9 -8 -20z m469 -22 c-3 -8 -6 -5 -6 6 -1 11 2 17 5 13 3 -3 4 -12 1 -19z
m-14 -58 c-3 -12 -8 -19 -11 -16 -5 6 5 36 12 36 2 0 2 -9 -1 -20z m-496 -52
c-3 -8 -6 -5 -6 6 -1 11 2 17 5 13 3 -3 4 -12 1 -19z m465 -60 c-8 -8 -9 -4
-5 13 4 13 8 18 11 10 2 -7 -1 -18 -6 -23z m-501 -71 c-10 -9 -11 -8 -5 6 3
10 9 15 12 12 3 -3 0 -11 -7 -18z m-7 -41 c-3 -9 -10 -16 -15 -16 -5 0 -4 9 3
20 14 22 21 20 12 -4z m-27 -108 c-3 -7 -5 -2 -5 12 0 14 2 19 5 13 2 -7 2
-19 0 -25z m-26 -71 c-10 -9 -11 -8 -5 6 3 10 9 15 12 12 3 -3 0 -11 -7 -18z
m482 -32 c-3 -9 -8 -14 -10 -11 -3 3 -2 9 2 15 9 16 15 13 8 -4z m142 5 c-3
-5 -12 -10 -18 -10 -7 0 -6 4 3 10 19 12 23 12 15 0z m-625 -14 c0 -3 -4 -8
-10 -11 -5 -3 -10 -1 -10 4 0 6 5 11 10 11 6 0 10 -2 10 -4z m474 -32 c3 -8 2
-12 -4 -9 -6 3 -10 10 -10 16 0 14 7 11 14 -7z m51 6 c-27 -12 -43 -12 -25 0
8 5 22 9 30 9 10 0 8 -3 -5 -9z m106 -53 c-10 -9 -11 -8 -5 6 3 10 9 15 12 12
3 -3 0 -11 -7 -18z m-664 -29 c-3 -8 -6 -5 -6 6 -1 11 2 17 5 13 3 -3 4 -12 1
-19z m656 -23 c-3 -9 -8 -14 -10 -11 -3 3 -2 9 2 15 9 16 15 13 8 -4z m-666
-17 c-3 -8 -6 -5 -6 6 -1 11 2 17 5 13 3 -3 4 -12 1 -19z m573 -92 c0 -3 -4
-8 -10 -11 -5 -3 -10 -1 -10 4 0 6 5 11 10 11 6 0 10 -2 10 -4z m-31 -10 c-2
-2 -15 -9 -29 -15 -24 -11 -24 -11 -6 3 16 13 49 24 35 12z m-79 -30 c0 -2 -8
-10 -17 -17 -16 -13 -17 -12 -4 4 13 16 21 21 21 13z m-20 -40 c0 -3 -4 -8
-10 -11 -5 -3 -10 -1 -10 4 0 6 5 11 10 11 6 0 10 -2 10 -4z m-658 -38 c-8 -8
-9 -4 -5 13 4 13 8 18 11 10 2 -7 -1 -18 -6 -23z m-25 -110 c-3 -8 -6 -5 -6 6
-1 11 2 17 5 13 3 -3 4 -12 1 -19z m630 -30 c-3 -8 -6 -5 -6 6 -1 11 2 17 5
13 3 -3 4 -12 1 -19z m-547 -12 c0 -2 -7 -7 -16 -10 -8 -3 -12 -2 -9 4 6 10
25 14 25 6z m850 -124 c394 -1 390 0 390 -9 0 -5 -162 -7 -359 -5 -320 2 -360
4 -365 19 -5 12 -3 13 6 5 9 -7 122 -10 328 -10z m-829 -25 c-10 -9 -11 -8 -5
6 3 10 9 15 12 12 3 -3 0 -11 -7 -18z m-10 -44 c-12 -20 -14 -14 -5 12 4 9 9
14 11 11 3 -2 0 -13 -6 -23z m1196 -85 c-3 -8 -6 -5 -6 6 -1 11 2 17 5 13 3
-3 4 -12 1 -19z m-17 -78 c-6 -11 -13 -20 -16 -20 -2 0 0 9 6 20 6 11 13 20
16 20 2 0 0 -9 -6 -20z m-23 -57 c-14 -14 -56 -16 -376 -17 -199 -1 -361 2
-361 7 0 4 164 7 365 7 320 0 366 2 372 15 3 9 8 13 11 10 3 -3 -2 -13 -11
-22z m-937 -10 c0 -10 -268 -9 -277 1 -3 3 57 6 135 6 78 0 142 -3 142 -7z"/>
</g>
</svg>
